<svg xmlns:xlink="http://www.w3.org/1999/xlink"  xmlns="http://www.w3.org/2000/svg" width="73" height="73" viewBox="0 0 73 73" fill="none"><g filter="url(#filter0_f_63_2917)"><circle cx="36.5" cy="36.5" r="28" stroke="#EF3A4F" stroke-opacity="0.7"></circle></g><circle cx="37" cy="37" r="23" stroke="#EF3A4F" stroke-width="2"></circle><circle cx="36.729" cy="37.3638" r="19.5455" fill="#EF3A4F"></circle><path d="M43.6368 40.9658C43.41 41.1978 43.0551 41.2189 42.805 41.0291L42.7333 40.9658L37.2221 35.3297L31.7109 40.9658C31.4841 41.1978 31.1292 41.2189 30.8791 41.0291L30.8074 40.9658C30.5806 40.7339 30.56 40.3709 30.7455 40.1151L30.8074 40.0418L36.7704 33.9433C36.9972 33.7113 37.3521 33.6902 37.6022 33.88L37.6739 33.9433L43.6368 40.0418C43.8864 40.297 43.8864 40.7107 43.6368 40.9658Z" fill="white" stroke="white"></path><defs><filter id="filter0_f_63_2917" x="0" y="0" width="73" height="73" filterUnits="userSpaceOnUse" color-interpolation-filters="sRGB"><feGaussianBlur stdDeviation="4"></feGaussianBlur></filter></defs></svg>