<svg xmlns:xlink="http://www.w3.org/1999/xlink"  xmlns="http://www.w3.org/2000/svg" width="40" height="40" viewBox="0 0 40 40" fill="red"><path fill-rule="evenodd" clip-rule="evenodd" d="M14.9999 2.91699L13.7499 7.50033H10.4166V12.0837L8.33325 14.5837L10.4166 17.0837V21.2503L13.7499 22.5003V25.8337L17.4999 24.5837L20.8333 27.0837L23.3332 24.5837L26.6666 25.8337L28.7499 21.2503H31.6666V17.0837L33.3332 14.5837L30.4166 12.0837L31.6666 7.50033H28.7499L26.6666 2.91699L23.3332 5.00033L20.8333 1.66699L17.4999 5.00033L14.9999 2.91699ZM19.9999 20.0003C17.2429 20.0003 14.9999 17.7573 14.9999 15.0003C14.9998 12.2433 17.2428 10.0003 19.9999 10.0003C22.757 10.0003 24.9999 12.2434 24.9999 15.0003C24.9999 17.7573 22.757 20.0003 19.9999 20.0003Z" fill=""></path><path d="M20.1451 7.53711C16.2183 7.53711 13.0237 10.7318 13.0237 14.6586C13.0237 18.5854 16.2183 21.78 20.1451 21.78C24.0719 21.78 27.2666 18.5854 27.2666 14.6586C27.2666 10.7318 24.0719 7.53711 20.1451 7.53711ZM20.1451 19.2117C17.6345 19.2117 15.592 17.1691 15.592 14.6586C15.5919 12.148 17.6344 10.1055 20.1451 10.1055C22.6558 10.1055 24.6982 12.148 24.6982 14.6586C24.6982 17.1691 22.6558 19.2117 20.1451 19.2117Z" fill="#202124"></path><path d="M31.9279 22.2561L32.8204 22.0194L31.6975 17.7851L34.803 14.6954L31.7133 11.59L32.8579 7.36147L28.6294 6.21686L27.5065 1.98257L23.2722 3.10554L20.1826 0L17.0771 3.08968L12.8486 1.94507L11.704 6.17358L7.46959 7.29655L8.59256 11.5308L5.4871 14.6205L8.57678 17.7261L7.43217 21.9546L8.11873 22.1404L3.08374 34.692L10.631 34.2902L16.6359 40L19.9999 31.6136L23.3639 40L29.3687 34.2902L36.916 34.692L31.9279 22.2561ZM15.6619 35.5296L11.5992 31.6666L6.96569 31.9133L10.6148 22.816L11.6606 23.0991L12.7836 27.3333L17.0179 26.2104L18.7156 27.9168L15.6619 35.5296ZM17.7927 23.3478L14.6076 24.1925L13.7629 21.0074L10.5822 20.1464L11.4432 16.9657L9.11912 14.6297L11.4551 12.3056L10.6104 9.12053L13.7955 8.27584L14.6566 5.09515L17.8373 5.95616L20.1733 3.6321L22.4973 5.96811L25.6825 5.12343L26.5272 8.3085L29.7079 9.16951L28.8468 12.3502L31.1709 14.6862L28.835 17.0103L29.6797 20.1954L26.4946 21.04L25.6336 24.2207L22.4529 23.3597L20.1168 25.6837L17.7927 23.3478ZM28.4007 31.6666L24.3381 35.5296L21.3499 28.0799L23.213 26.2263L27.4415 27.3709L28.5861 23.1424L29.4267 22.9194L33.0343 31.9131L28.4007 31.6666Z" fill="#202124"></path></svg>