<svg width="13" height="13" viewBox="0 0 13 13" fill="none" xmlns="http://www.w3.org/2000/svg">
<path d="M9.69531 5.90268C10.4509 5.79651 11.0327 5.14868 11.0343 4.3638C11.0343 3.5903 10.4704 2.94897 9.73106 2.82764" stroke="#9D9D9D" stroke-width="0.8125" stroke-linecap="round" stroke-linejoin="round"/>
<path d="M10.6875 7.71924C11.4193 7.82865 11.9301 8.08486 11.9301 8.61299C11.9301 8.97645 11.6896 9.21261 11.3007 9.36103" stroke="#9D9D9D" stroke-width="0.8125" stroke-linecap="round" stroke-linejoin="round"/>
<path fill-rule="evenodd" clip-rule="evenodd" d="M6.44654 7.94312C4.70563 7.94312 3.21875 8.20691 3.21875 9.26045C3.21875 10.3134 4.69642 10.5848 6.44654 10.5848C8.18746 10.5848 9.67379 10.3237 9.67379 9.26966C9.67379 8.21557 8.19667 7.94312 6.44654 7.94312Z" stroke="#9D9D9D" stroke-width="0.8125" stroke-linecap="round" stroke-linejoin="round"/>
<path fill-rule="evenodd" clip-rule="evenodd" d="M6.44364 6.4395C7.58602 6.4395 8.51227 5.51379 8.51227 4.37087C8.51227 3.2285 7.58602 2.30225 6.44364 2.30225C5.30127 2.30225 4.37502 3.2285 4.37502 4.37087C4.37068 5.50945 5.28989 6.4357 6.42847 6.4395H6.44364Z" stroke="#9D9D9D" stroke-width="0.8125" stroke-linecap="round" stroke-linejoin="round"/>
<path d="M3.19056 5.90268C2.4344 5.79651 1.85319 5.14868 1.85156 4.3638C1.85156 3.5903 2.41544 2.94897 3.15481 2.82764" stroke="#9D9D9D" stroke-width="0.8125" stroke-linecap="round" stroke-linejoin="round"/>
<path d="M2.19571 7.71924C1.46392 7.82865 0.953125 8.08486 0.953125 8.61299C0.953125 8.97645 1.19362 9.21261 1.58254 9.36103" stroke="#9D9D9D" stroke-width="0.8125" stroke-linecap="round" stroke-linejoin="round"/>
</svg>
