<svg xmlns="http://www.w3.org/2000/svg" width="12" height="12" viewBox="0 0 12 12" fill="none"><path opacity="0.4" d="M8.39114 0.166748H10.3224C11.1222 0.166748 11.7703 0.835162 11.7703 1.66006V3.65189C11.7703 4.47679 11.1222 5.1452 10.3224 5.1452H8.39114C7.59132 5.1452 6.94324 4.47679 6.94324 3.65189V1.66006C6.94324 0.835162 7.59132 0.166748 8.39114 0.166748" fill="#595959"></path><path fill-rule="evenodd" clip-rule="evenodd" d="M1.81081 0.166748H3.74207C4.54188 0.166748 5.18997 0.835162 5.18997 1.66006V3.65189C5.18997 4.47679 4.54188 5.1452 3.74207 5.1452H1.81081C1.011 5.1452 0.362915 4.47679 0.362915 3.65189V1.66006C0.362915 0.835162 1.011 0.166748 1.81081 0.166748ZM1.81081 6.85496H3.74207C4.54188 6.85496 5.18997 7.52338 5.18997 8.34828V10.3401C5.18997 11.1644 4.54188 11.8334 3.74207 11.8334H1.81081C1.011 11.8334 0.362915 11.1644 0.362915 10.3401V8.34828C0.362915 7.52338 1.011 6.85496 1.81081 6.85496ZM10.3224 6.85496H8.39117C7.59136 6.85496 6.94327 7.52338 6.94327 8.34828V10.3401C6.94327 11.1644 7.59136 11.8334 8.39117 11.8334H10.3224C11.1222 11.8334 11.7703 11.1644 11.7703 10.3401V8.34828C11.7703 7.52338 11.1222 6.85496 10.3224 6.85496Z" fill="#595959"></path></svg>