<svg width="45" height="45" viewBox="0 0 45 45" fill="none" xmlns="http://www.w3.org/2000/svg">
<path d="M17.0082 34.458L16.9902 34.4644L16.9724 34.4715C16.7233 34.5711 16.4377 34.625 16.1437 34.625C15.7305 34.625 15.3367 34.5175 15.0199 34.34L15.0023 34.3302L14.9843 34.3211C14.159 33.9016 13.6 33.0547 13.6 32.0812V17.925V16.925H12.6H10.8375C7.48977 16.925 4.75 14.1853 4.75 10.8376C4.75 9.16443 5.42371 7.65295 6.53833 6.53833C7.65296 5.4237 9.16438 4.75 10.8375 4.75H14.3813C16.7352 4.75 18.6875 6.7023 18.6875 9.05628V32.0812C18.6875 33.1806 17.9931 34.1072 17.0082 34.458Z" fill="white" stroke="black" stroke-width="2"/>
<path d="M10.8367 13.7561C9.23199 13.7561 7.91797 12.444 7.91797 10.8187C7.91797 9.19519 9.23008 7.8999 10.8367 7.8999C11.4674 7.8999 11.993 8.42547 11.993 9.05615C11.993 9.68683 11.4674 10.2124 10.8367 10.2124C10.4839 10.2124 10.2305 10.5017 10.2305 10.8187C10.2305 10.9854 10.3037 11.138 10.4055 11.247C10.5074 11.3561 10.659 11.4436 10.8367 11.4436C11.4674 11.4436 11.993 11.9691 11.993 12.5998C11.993 13.2305 11.4674 13.7561 10.8367 13.7561Z" fill="#EF3A4F" stroke="white" stroke-width="0.5"/>
<path d="M32.4 16.925H31.4V17.925V32.0812C31.4 33.0547 30.841 33.9016 30.0157 34.3211L29.9977 34.3302L29.9801 34.34C29.6633 34.5175 29.2695 34.625 28.8563 34.625C28.5623 34.625 28.2767 34.5711 28.0276 34.4715L28.0098 34.4644L27.9918 34.458C27.0069 34.1072 26.3125 33.1806 26.3125 32.0812V9.05628C26.3125 6.7 28.2483 4.75 30.6187 4.75H34.1625C35.8356 4.75 37.347 5.4237 38.4617 6.53833C39.5763 7.65295 40.25 9.16443 40.25 10.8376C40.25 14.1853 37.5102 16.925 34.1625 16.925H32.4Z" fill="white" stroke="black" stroke-width="2"/>
<path d="M34.1641 13.7561C33.5334 13.7561 33.0078 13.2305 33.0078 12.5998C33.0078 11.9691 33.5334 11.4436 34.1641 11.4436C34.5248 11.4436 34.7703 11.1459 34.7703 10.8187C34.7703 10.4658 34.481 10.2124 34.1641 10.2124C33.5334 10.2124 33.0078 9.68683 33.0078 9.05615C33.0078 8.42547 33.5334 7.8999 34.1641 7.8999C35.7697 7.8999 37.0828 9.21298 37.0828 10.8187C37.0828 12.4272 35.7856 13.7561 34.1641 13.7561Z" fill="#EF3A4F" stroke="white" stroke-width="0.5"/>
<path d="M17.3438 35.3999V41.2498C17.3438 42.0186 16.7062 42.6561 15.9375 42.6561C15.1688 42.6561 14.5312 42.0186 14.5312 41.2498V35.2124C15 35.4749 15.5625 35.6248 16.1437 35.6248C16.5562 35.6248 16.9687 35.5499 17.3438 35.3999Z" fill="black"/>
<path d="M30.4688 35.2124V41.2498C30.4688 42.0186 29.8312 42.6561 29.0625 42.6561C28.2938 42.6561 27.6562 42.0186 27.6562 41.2498V35.3999C28.0313 35.5499 28.4438 35.6248 28.8563 35.6248C29.4375 35.6248 30 35.4749 30.4688 35.2124Z" fill="black"/>
</svg>
