<svg width="45" height="45" viewBox="0 0 45 45" fill="none" xmlns="http://www.w3.org/2000/svg">
<path d="M31.875 40.25H13.125C9.55228 40.25 6.625 37.3227 6.625 33.75V11.25C6.625 7.67728 9.55228 4.75 13.125 4.75H31.875C35.4477 4.75 38.375 7.67728 38.375 11.25V33.75C38.375 37.3227 35.4477 40.25 31.875 40.25Z" fill="white" stroke="black" stroke-width="2"/>
<path d="M30.4688 19.625H14.5312C13.2835 19.625 12.25 18.5915 12.25 17.3438V12.6562C12.25 11.4085 13.2835 10.375 14.5312 10.375H30.4688C31.7165 10.375 32.75 11.4085 32.75 12.6562V17.3438C32.75 18.5915 31.7165 19.625 30.4688 19.625Z" fill="white" stroke="black" stroke-width="2"/>
<path d="M20.3617 32.0251L19.143 30.8063L20.3054 29.6438C20.8492 29.1001 20.8492 28.2001 20.3054 27.6563C19.7617 27.1126 18.8617 27.1126 18.3179 27.6563L17.1555 28.8188L16.0492 27.7127C15.5055 27.1689 14.6055 27.1689 14.0617 27.7127C13.518 28.2564 13.518 29.1564 14.0617 29.7001L15.168 30.8063L14.0055 31.9688C13.4617 32.5126 13.4617 33.4126 14.0055 33.9563C14.2867 34.2376 14.643 34.3689 14.9992 34.3689C15.3555 34.3689 15.7117 34.2376 15.993 33.9563L17.1555 32.7938L18.3742 34.0126C18.6554 34.2939 19.0117 34.4251 19.3679 34.4251C19.7242 34.4251 20.0804 34.2939 20.3617 34.0126C20.9054 33.4689 20.9054 32.5689 20.3617 32.0251Z" fill="#EF3A4F"/>
<path d="M30.9563 30.6187C29.925 30.6187 29.0625 29.7749 29.0625 28.7437C29.0625 27.7124 29.8875 26.8687 30.9187 26.8687H30.9563C31.9875 26.8687 32.8313 27.7124 32.8313 28.7437C32.8313 29.7749 31.9875 30.6187 30.9563 30.6187Z" fill="#EF3A4F"/>
<path d="M27.168 34.6687C26.1367 34.6687 25.293 33.8437 25.293 32.8124V32.7749C25.293 31.7437 26.1367 30.8999 27.168 30.8999C28.1992 30.8999 29.043 31.7437 29.043 32.7749C29.043 33.8062 28.1992 34.6687 27.168 34.6687Z" fill="#EF3A4F"/>
</svg>
