<svg width="45" height="45" viewBox="0 0 45 45" fill="none" xmlns="http://www.w3.org/2000/svg">
<path d="M29.6468 31.1187H29.6367L29.3653 31.3309C27.4731 32.8103 25.101 33.6875 22.5 33.6875C19.9347 33.6875 17.5796 32.8279 15.6864 31.365L15.4163 31.1562H15.4057C12.9032 29.1012 11.3125 25.9943 11.3125 22.5C11.3125 16.321 16.321 11.3125 22.5 11.3125C28.679 11.3125 33.6875 16.321 33.6875 22.5C33.6875 25.9583 32.1141 29.0639 29.6468 31.1187Z" fill="white" stroke="black" stroke-width="2"/>
<path d="M22.4984 35.4374C24.8324 35.4374 27.0126 34.8243 28.8963 33.7476L28.3114 36.58C27.8819 38.2342 27.2153 39.1796 26.4533 39.7266C25.6816 40.2805 24.7097 40.4999 23.5297 40.4999H21.4859C20.3056 40.4999 19.3293 40.2804 18.5556 39.7244C17.7922 39.1759 17.1257 38.2273 16.7052 36.5655L16.1431 33.7666C18.0227 34.8332 20.1889 35.4374 22.4984 35.4374Z" fill="white" stroke="black" stroke-width="1.5"/>
<path d="M28.8963 11.2523C27.0126 10.1756 24.8324 9.5625 22.4984 9.5625C20.1889 9.5625 18.0227 10.1667 16.1431 11.2333L16.7052 8.43438C17.1257 6.7726 17.7922 5.82398 18.5556 5.27548C19.3293 4.71955 20.3056 4.5 21.4859 4.5H23.5297C24.7097 4.5 25.6816 4.71941 26.4533 5.27334C27.2153 5.82032 27.8819 6.76574 28.3114 8.41988L28.8963 11.2523Z" fill="white" stroke="black" stroke-width="1.5"/>
<path d="M25.125 27.3748C24.7687 27.3748 24.4125 27.2436 24.1312 26.9623L21.5063 24.3373C21.2438 24.0748 21.0938 23.7186 21.0938 23.3436V18.1123C21.0938 17.3436 21.7313 16.7061 22.5 16.7061C23.2687 16.7061 23.9062 17.3436 23.9062 18.1123V22.7623L26.1188 24.9748C26.6625 25.5186 26.6625 26.4186 26.1188 26.9623C25.8375 27.2436 25.4812 27.3748 25.125 27.3748Z" fill="#EF3A4F"/>
</svg>
