<svg width="45" height="45" viewBox="0 0 45 45" fill="none" xmlns="http://www.w3.org/2000/svg">
<path d="M35.0828 17.7937C34.8953 17.7937 34.7078 17.7562 34.5203 17.6812C33.8078 17.3624 33.4891 16.5375 33.7891 15.825C34.1453 15.0187 33.9391 13.8374 33.2828 12.8624C32.6266 11.8687 31.6328 11.2124 30.7141 11.2499C29.8891 11.2499 29.3078 10.6312 29.2891 9.86247C29.2891 9.07497 29.9078 8.4562 30.6766 8.43745C32.6078 8.39995 34.4266 9.50623 35.6078 11.2875C36.8078 13.0875 37.0891 15.2438 36.3578 16.9313C36.1516 17.475 35.6266 17.7937 35.0828 17.7937Z" fill="#EF3A4F"/>
<path d="M40.9113 19.6502C40.7801 19.6502 40.6675 19.6315 40.5363 19.594C39.7863 19.3878 39.3551 18.6191 39.5613 17.8691C40.2738 15.3191 39.6738 12.2815 37.9676 9.7315C36.2613 7.1815 33.6738 5.47525 31.0301 5.1565C30.2613 5.06275 29.7175 4.36897 29.8113 3.60022C29.905 2.83147 30.6175 2.26904 31.3675 2.38154C34.7988 2.79404 38.1363 4.96899 40.2926 8.19399C42.4488 11.419 43.18 15.319 42.2613 18.6565C42.0925 19.2378 41.5301 19.6502 40.9113 19.6502Z" fill="#EF3A4F"/>
<path d="M12.2143 39.8959L12.2143 39.8959L12.2122 39.9024C12.0654 40.3426 11.9459 40.6589 11.7069 40.9005C11.5083 41.1013 11.1153 41.3561 10.1983 41.3561H7.5921C6.76806 41.3561 5.98735 41.0065 5.4458 40.4097C4.92096 39.8295 4.65707 39.0371 4.72549 38.2654C4.72554 38.2648 4.72559 38.2643 4.72564 38.2637L5.51229 29.7977C5.51238 29.7969 5.51247 29.796 5.51255 29.7951C5.62415 28.6622 5.81639 27.7507 6.34592 27.1032C6.82875 26.5127 7.7568 25.9561 9.80458 25.9561H27.5608C29.609 25.9561 30.5424 26.513 31.0275 27.1044C31.5576 27.7505 31.7505 28.6614 31.8522 29.7876C31.8523 29.7883 31.8523 29.789 31.8524 29.7897L32.5833 38.2793L32.5836 38.2825C32.6525 39.0546 32.3886 39.8477 31.8635 40.4284C31.322 41.0252 30.5413 41.3748 29.7171 41.3748H27.1109C26.1939 41.3748 25.8008 41.12 25.6023 40.9192C25.3633 40.6776 25.2438 40.3613 25.097 39.9211L24.8158 39.0773L24.8111 39.0634C24.7289 38.8167 24.6421 38.5562 24.5417 38.3377C24.4337 38.1027 24.2714 37.8257 23.9877 37.6044C23.7004 37.3802 23.3842 37.2871 23.1019 37.2428C22.8331 37.2007 22.5291 37.1936 22.2171 37.1936H15.0921C14.4866 37.1936 13.7987 37.2287 13.2737 37.6681C13.0072 37.8912 12.8517 38.1592 12.7473 38.389C12.6548 38.5925 12.5763 38.8284 12.5061 39.0392C12.5022 39.0509 12.4983 39.0626 12.4945 39.0742L12.2143 39.8959Z" fill="white" stroke="black" stroke-width="2"/>
<path d="M29.0586 20.9461L29.1825 21.5438H29.793H29.7931H29.7932H29.7933H29.7934H29.7935H29.7936H29.7937H29.7938H29.7939H29.794H29.7941H29.7942H29.7943H29.7945H29.7946H29.7947H29.7948H29.7949H29.795H29.7951H29.7952H29.7953H29.7954H29.7955H29.7956H29.7957H29.7958H29.7959H29.796H29.7961H29.7962H29.7963H29.7964H29.7965H29.7966H29.7966H29.7967H29.7968H29.7969H29.797H29.7971H29.7972H29.7973H29.7974H29.7975H29.7976H29.7977H29.7978H29.7979H29.7979H29.798H29.7981H29.7982H29.7983H29.7984H29.7985H29.7986H29.7987H29.7987H29.7988H29.7989H29.799H29.7991H29.7992H29.7993H29.7994H29.7994H29.7995H29.7996H29.7997H29.7998H29.7999H29.7999H29.8H29.8001H29.8002H29.8003H29.8004H29.8004H29.8005H29.8006H29.8007H29.8008H29.8008H29.8009H29.801H29.8011H29.8012H29.8012H29.8013H29.8014H29.8015H29.8015H29.8016H29.8017H29.8018H29.8019H29.8019H29.802H29.8021H29.8022H29.8022H29.8023H29.8024H29.8025H29.8025H29.8026H29.8027H29.8027H29.8028H29.8029H29.803H29.803H29.8031H29.8032H29.8033H29.8033H29.8034H29.8035H29.8035H29.8036H29.8037H29.8037H29.8038H29.8039H29.804H29.804H29.8041H29.8042H29.8042H29.8043H29.8044H29.8044H29.8045H29.8046H29.8046H29.8047H29.8048H29.8048H29.8049H29.805H29.805H29.8051H29.8052H29.8052H29.8053H29.8054H29.8054H29.8055H29.8056H29.8056H29.8057H29.8057H29.8058H29.8059H29.8059H29.806H29.8061H29.8061H29.8062H29.8063H29.8063H29.8064H29.8064H29.8065H29.8066H29.8066H29.8067H29.8067H29.8068H29.8069H29.8069H29.807H29.8071H29.8071H29.8072H29.8072H29.8073H29.8074H29.8074H29.8075H29.8075H29.8076H29.8076H29.8077H29.8078H29.8078H29.8079H29.8079H29.808H29.8081H29.8081H29.8082H29.8082H29.8083H29.8084H29.8084H29.8085H29.8085H29.8086H29.8086H29.8087H29.8088H29.8088H29.8089H29.8089H29.809H29.809H29.8091H29.8092H29.8092H29.8093H29.8093H29.8094H29.8094H29.8095H29.8096H29.8096H29.8097H29.8097H29.8098H29.8098H29.8099H29.8099H29.81H29.8101H29.8101H29.8102H29.8102H29.8103H29.8103H29.8104H29.8104H29.8105H29.8106H29.8106H29.8107H29.8107H29.8108H29.8108H29.8109H29.8109H29.811H29.8111H29.8111H29.8112H29.8112H29.8113H29.8113H29.8114H29.8114H29.8115H29.8115H29.8116H29.8117H29.8117H29.8118H29.8118H29.8119H29.8119H29.812H29.812H29.8121H29.8122H29.8122H29.8123H29.8123H29.8124H29.8124H29.8125H29.8125H29.8126H29.8126H29.8127H29.8128H29.8128H29.8129H29.8129H29.813H29.813H29.8131H29.8131H29.8132H29.8133H29.8133H29.8134H29.8134H29.8135H29.8135H29.8136H29.8136H29.8137H29.8138H29.8138H29.8139H29.8139H29.814H29.814H29.8141H29.8142H29.8142H29.8143H29.8143H29.8144H29.8144H29.8145H29.8146H29.8146H29.8147H29.8147H29.8148H29.8148H29.8149H29.815H29.815H29.8151H29.8151H29.8152H29.8152H29.8153H29.8154H29.8154H29.8155H29.8155H29.8156H29.8157H29.8157H29.8158H29.8158H29.8159H29.816H29.816H29.8161H29.8161H29.8162H29.8162H29.8163H29.8164H29.8164H29.8165H29.8166H29.8166H29.8167H29.8167H29.8168H29.8169H29.8169H29.817H29.817H29.8171H29.8172H29.8172H29.8173H29.8174H29.8174H29.8175H29.8175H29.8176H29.8177H29.8177H29.8178H29.8179H29.8179H29.818H29.8181H29.8181H29.8182H29.8183H29.8183H29.8184H29.8185H29.8185H29.8186H29.8187H29.8187H29.8188H29.8189H29.8189H29.819H29.8191H29.8191H29.8192H29.8193H29.8193H29.8194H29.8195H29.8195H29.8196H29.8197H29.8197H29.8198H29.8199H29.82H29.82H29.8201H29.8202H29.8202H29.8203H29.8204H29.8205H29.8205H29.8206H29.8207H29.8207H29.8208H29.8209H29.821H29.821H29.8211H29.8212H29.8213H29.8213H29.8214H29.8215H29.8216H29.8216H29.8217H29.8218H29.8219H29.822H29.822H29.8221H29.8222H29.8223H29.8223H29.8224H29.8225H29.8226H29.8227H29.8227H29.8228H29.8229H29.823H29.8231H29.8232H29.8232H29.8233H29.8234H29.8235H29.8236H29.8236H29.8237H29.8238H29.8239H29.824H29.8241H29.8242H29.8242H29.8243H29.8244H29.8245H29.8246H29.8247H29.8248H29.8248H29.8249H29.825H29.8251H29.8252H29.8253H29.8254H29.8255H29.8256H29.8257H29.8257H29.8258H29.8259H29.826H29.8261H29.8262H29.8263H29.8264H29.8265H29.8266H29.8267H29.8268H29.8269H29.827H29.8271H29.8272H29.8273H29.8274H29.8275H29.8276H29.8277H29.8277H29.8278H29.8279H29.828H29.8281H29.8283H29.8284H29.8285H29.8286H29.8287H29.8288H29.8289H29.829H29.8291H29.8292H29.8293H29.8294H29.8295H29.8296H29.8297H29.8298H29.8299H29.83H29.8301H29.8302H29.8304H29.8305H31.2179C31.3702 21.5438 31.5298 21.6673 31.5546 21.8667C31.5431 22.0228 31.4148 22.1438 31.2555 22.1438H30.2617H29.3383L29.5276 23.0476L29.8258 24.4711C29.1811 24.3091 28.4413 24.225 27.5992 24.225H9.84296C9.00082 24.225 8.26111 24.3091 7.61636 24.4711L7.91453 23.0476L8.10383 22.1438H7.18046H6.18671C6.01968 22.1438 5.88672 22.0108 5.88672 21.8438C5.88672 21.6768 6.01968 21.5438 6.18671 21.5438H7.5742H7.57431H7.57441H7.57452H7.57463H7.57474H7.57485H7.57495H7.57506H7.57517H7.57527H7.57538H7.57548H7.57559H7.57569H7.5758H7.5759H7.576H7.57611H7.57621H7.57631H7.57641H7.57651H7.57661H7.57671H7.57681H7.57691H7.57701H7.57711H7.57721H7.57731H7.5774H7.5775H7.5776H7.57769H7.57779H7.57789H7.57798H7.57808H7.57817H7.57827H7.57836H7.57845H7.57855H7.57864H7.57873H7.57882H7.57891H7.57901H7.5791H7.57919H7.57928H7.57937H7.57946H7.57955H7.57964H7.57972H7.57981H7.5799H7.57999H7.58008H7.58016H7.58025H7.58034H7.58042H7.58051H7.58059H7.58068H7.58076H7.58085H7.58093H7.58101H7.5811H7.58118H7.58126H7.58135H7.58143H7.58151H7.58159H7.58167H7.58176H7.58184H7.58192H7.582H7.58208H7.58216H7.58224H7.58231H7.58239H7.58247H7.58255H7.58263H7.58271H7.58278H7.58286H7.58294H7.58301H7.58309H7.58317H7.58324H7.58332H7.58339H7.58347H7.58354H7.58362H7.58369H7.58376H7.58384H7.58391H7.58398H7.58406H7.58413H7.5842H7.58427H7.58435H7.58442H7.58449H7.58456H7.58463H7.5847H7.58477H7.58484H7.58491H7.58498H7.58505H7.58512H7.58519H7.58526H7.58533H7.5854H7.58547H7.58554H7.5856H7.58567H7.58574H7.58581H7.58587H7.58594H7.58601H7.58607H7.58614H7.58621H7.58627H7.58634H7.5864H7.58647H7.58653H7.5866H7.58666H7.58673H7.58679H7.58686H7.58692H7.58698H7.58705H7.58711H7.58718H7.58724H7.5873H7.58736H7.58743H7.58749H7.58755H7.58761H7.58768H7.58774H7.5878H7.58786H7.58792H7.58798H7.58805H7.58811H7.58817H7.58823H7.58829H7.58835H7.58841H7.58847H7.58853H7.58859H7.58865H7.58871H7.58877H7.58883H7.58889H7.58895H7.58901H7.58907H7.58913H7.58918H7.58924H7.5893H7.58936H7.58942H7.58948H7.58953H7.58959H7.58965H7.58971H7.58977H7.58982H7.58988H7.58994H7.59H7.59005H7.59011H7.59017H7.59022H7.59028H7.59034H7.59039H7.59045H7.59051H7.59056H7.59062H7.59068H7.59073H7.59079H7.59085H7.5909H7.59096H7.59101H7.59107H7.59113H7.59118H7.59124H7.59129H7.59135H7.5914H7.59146H7.59152H7.59157H7.59163H7.59168H7.59174H7.59179H7.59185H7.5919H7.59196H7.59201H7.59207H7.59212H7.59218H7.59223H7.59229H7.59234H7.5924H7.59246H7.59251H7.59257H7.59262H7.59267H7.59273H7.59278H7.59284H7.5929H7.59295H7.593H7.59306H7.59311H7.59317H7.59322H7.59328H7.59333H7.59339H7.59344H7.5935H7.59355H7.59361H7.59366H7.59372H7.59378H7.59383H7.59389H7.59394H7.594H7.59405H7.59411H7.59416H7.59422H7.59427H7.59433H7.59438H7.59444H7.59449H7.59455H7.59461H7.59466H7.59472H7.59477H7.59483H7.59489H7.59494H7.595H7.59505H7.59511H7.59517H7.59522H7.59528H7.59534H7.59539H7.59545H7.5955H7.59556H7.59562H7.59568H7.59573H7.59579H7.59585H7.5959H7.59596H7.59602H7.59608H7.59613H7.59619H7.59625H7.59631H7.59637H7.59642H7.59648H7.59654H7.5966H7.59666H7.59672H7.59677H7.59683H7.59689H7.59695H7.59701H7.59707H7.59713H7.59719H7.59725H7.59731H7.59737H7.59743H7.59749H7.59755H7.59761H7.59767H7.59773H7.59779H7.59785H7.59791H7.59798H7.59804H7.5981H7.59816H7.59822H7.59829H7.59835H7.59841H7.59847H7.59854H7.5986H7.59866H7.59872H7.59879H7.59885H7.59892H7.59898H7.59904H7.59911H7.59917H7.59924H7.5993H7.59937H7.59943H7.5995H7.59956H7.59963H7.59969H7.59976H7.59983H7.59989H7.59996H7.60003H7.60009H7.60016H7.60023H7.6003H7.60036H7.60043H7.6005H7.60057H7.60064H7.60071H7.60078H7.60085H7.60092H7.60099H7.60106H7.60113H7.6012H7.60127H7.60134H7.60141H7.60148H7.60155H7.60163H7.6017H7.60177H7.60184H7.60192H7.60199H7.60206H7.60214H7.60221H7.60228H7.60236H7.60243H7.60251H7.60258H7.60266H7.60273H7.60281H7.60289H7.60296H7.60304H7.60312H7.60319H7.60327H7.60335H7.60343H7.60351H7.60359H7.60366H7.60374H7.60382H7.6039H7.60398H7.60406H7.60414H7.60423H7.60431H7.60439H7.60447H7.60455H7.60464H7.60472H7.6048H7.60488H7.60497H7.60505H7.60514H7.60522H7.60531H7.60539H7.60548H7.60556H7.60565H7.60574H7.60582H7.60591H7.606H7.60609H7.60618H7.60626H7.60635H7.60644H7.60653H7.60662H7.60671H7.6068H7.60689H7.60699H7.60708H7.60717H7.60726H7.60735H7.60745H7.60754H7.60763H7.60773H7.60782H7.60792H7.60801H7.60811H7.60821H7.6083H7.6084H7.6085H7.60859H7.60869H7.60879H7.60889H7.60899H7.60909H7.60919H7.60929H7.60939H7.60949H7.60959H7.60969H7.60979H7.6099H7.61H7.6101H7.61021H7.61031H7.61042H7.61052H7.61063H7.61073H7.61084H7.61095H7.61105H7.61116H7.61127H7.61138H7.61149H7.61159H7.6117H8.22211L8.34608 20.9461L8.87107 18.4148L8.87109 18.4148L8.87214 18.4096C9.10804 17.2301 9.4572 16.2409 10.1431 15.5378C10.8049 14.8594 11.8856 14.3438 13.8179 14.3438H17.6617H19.743H23.5867C25.5187 14.3438 26.5944 14.8592 27.2538 15.537C27.9385 16.2409 28.2877 17.231 28.5336 18.415L29.0586 20.9461Z" fill="white" stroke="black" stroke-width="1.5"/>
<path d="M14.5281 32.6063H10.3469C9.76562 32.6063 9.29688 32.1376 9.29688 31.5563C9.29688 30.9751 9.76562 30.5063 10.3469 30.5063H14.5281C15.1094 30.5063 15.5781 30.9751 15.5781 31.5563C15.5594 32.1376 15.1094 32.6063 14.5281 32.6063Z" fill="black"/>
<path d="M27.0555 32.6063H22.8742C22.293 32.6063 21.8242 32.1376 21.8242 31.5563C21.8242 30.9751 22.293 30.5063 22.8742 30.5063H27.0555C27.6367 30.5063 28.1055 30.9751 28.1055 31.5563C28.0867 32.1376 27.618 32.6063 27.0555 32.6063Z" fill="black"/>
</svg>
