<svg width="45" height="45" viewBox="0 0 45 45" fill="none" xmlns="http://www.w3.org/2000/svg">
<path d="M37.3089 34.1843C33.2956 34.7211 27.2596 36.6703 23.5 38.6145V10.7694C23.6772 10.7076 23.8482 10.6287 24.0082 10.5327C24.0082 10.5327 24.0083 10.5327 24.0083 10.5326L24.477 10.2515L24.4844 10.2471L24.4917 10.2425C27.6953 8.24474 33.5043 6.30887 37.2807 6.00317L37.2838 6.00291C38.9277 5.86476 40.25 7.08762 40.25 8.73765V31.3877C40.25 32.6912 39.1553 33.9464 37.8635 34.1079L37.8635 34.1078L37.8508 34.1095L37.3112 34.184C37.3105 34.1841 37.3097 34.1842 37.3089 34.1843Z" fill="white" stroke="black" stroke-width="2"/>
<path d="M20.9917 10.5326C21.1518 10.6286 21.3228 10.7075 21.5 10.7694V38.5912C17.7296 36.6476 11.7546 34.7149 7.76313 34.1839L7.76314 34.1838L7.7517 34.1824L7.13652 34.1078C7.13598 34.1077 7.13544 34.1077 7.1349 34.1076C5.84376 33.9453 4.75 32.6906 4.75 31.3876V8.75635C4.75 7.09722 6.08144 5.88265 7.73498 6.0216L7.77677 6.02512H7.81872H7.88774C11.6654 6.3596 17.4578 8.30548 20.6496 10.3119L20.963 10.5147L20.9772 10.5239L20.9917 10.5326Z" fill="white" stroke="black" stroke-width="2"/>
<path d="M35.625 5.2124V13.2561C35.625 14.0061 34.7999 14.4561 34.1624 14.0436L31.875 12.5248L29.5876 14.0436C28.9688 14.4561 28.125 14.0061 28.125 13.2561V7.34982C30.5812 6.37482 33.3187 5.5874 35.625 5.2124Z" fill="#EF3A4F"/>
</svg>
