<svg width="46" height="45" viewBox="0 0 46 45" fill="none" xmlns="http://www.w3.org/2000/svg">
<path d="M8.65884 22.3527L8.65951 22.3502L12.7845 7.20021L12.7845 7.20021L12.7853 7.1971C12.9522 6.57651 13.3927 5.95557 14.0091 5.4842C14.6256 5.01277 15.3408 4.75 15.9821 4.75H31.0196C31.6609 4.75 32.3762 5.01277 32.9927 5.4842C33.6091 5.95557 34.0496 6.57651 34.2164 7.1971L34.2173 7.20021L38.3423 22.3502L38.3429 22.3527C38.6836 23.5914 38.449 24.6243 37.9074 25.334C37.3658 26.0439 36.4305 26.5437 35.1446 26.5437H11.8571C10.5712 26.5437 9.63601 26.0439 9.09432 25.334C8.55275 24.6243 8.31819 23.5914 8.65884 22.3527Z" fill="white" stroke="black" stroke-width="2"/>
<path d="M32.4062 39.8439C32.4062 40.6127 31.7688 41.2502 31 41.2502H16C15.2312 41.2502 14.5938 40.6127 14.5938 39.8439C14.5938 39.0752 15.2312 38.4377 16 38.4377H22.0938V27.5439H24.9062V38.4377H31C31.7688 38.4377 32.4062 39.0752 32.4062 39.8439Z" fill="black"/>
<path d="M43.4643 8.51777L44.0147 6.65177C44.0684 6.47725 44.0147 6.2893 43.8939 6.15506C43.7731 6.02081 43.5583 5.96712 43.3838 6.02081L41.5178 6.57122L39.6518 6.02081C39.4772 5.96712 39.2893 6.02081 39.1551 6.14164C39.0208 6.27588 38.9805 6.46382 39.0342 6.63834L39.5712 8.51777L39.0208 10.3838C38.9671 10.5583 39.0208 10.7462 39.1416 10.8805C39.2759 11.0147 39.4638 11.055 39.6383 11.0013L41.5178 10.4643L43.3838 11.0147C43.4375 11.0281 43.4777 11.0416 43.5314 11.0416C43.6657 11.0416 43.7865 10.9879 43.8939 10.8939C44.0281 10.7597 44.0684 10.5717 44.0147 10.3972L43.4643 8.51777Z" fill="#EF3A4F"/>
<path d="M4.49607 19.5172L5.39224 18.2408C5.47774 18.122 5.4851 17.9655 5.42772 17.8325C5.37033 17.6996 5.22093 17.6038 5.07461 17.5999L3.51617 17.5399L2.23975 16.6437C2.12095 16.5582 1.96442 16.5509 1.8315 16.6083C1.69513 16.6758 1.61639 16.8083 1.61247 16.9546L1.53885 18.5198L0.642686 19.7962C0.557185 19.915 0.549824 20.0715 0.607206 20.2045C0.674786 20.3408 0.80723 20.4196 0.953553 20.4235L2.51875 20.4971L3.79517 21.3933C3.83252 21.4172 3.85967 21.4378 3.90046 21.4515C4.00243 21.4859 4.10797 21.4761 4.21362 21.4322C4.34999 21.3646 4.42873 21.2322 4.43265 21.0859L4.49607 19.5172Z" fill="#EF3A4F"/>
</svg>
