<svg width="45" height="45" viewBox="0 0 45 45" fill="none" xmlns="http://www.w3.org/2000/svg">
<path d="M35.8562 13.3553L33.7695 15.4419L29.5587 11.2312L31.6454 9.14451C32.2348 8.55513 32.9881 8.2749 33.7508 8.2749C34.5134 8.2749 35.2668 8.55513 35.8562 9.14451C37.0219 10.3102 37.0219 12.1896 35.8562 13.3553Z" fill="white" stroke="black" stroke-width="2"/>
<path d="M28.143 12.6457L32.3538 16.8564L11.4796 37.7306C10.3139 38.8963 8.43455 38.8963 7.26883 37.7306C6.1031 36.5649 6.1031 34.6855 7.26883 33.5198L28.143 12.6457Z" fill="white" stroke="black" stroke-width="2"/>
<path d="M18.6572 6.56247L19.4259 3.95622C19.5009 3.71247 19.4259 3.44997 19.2572 3.26247C19.0884 3.07497 18.7884 2.99997 18.5447 3.07497L15.9384 3.84372L13.3322 3.07497C13.0884 2.99997 12.8259 3.07497 12.6384 3.24372C12.4509 3.43122 12.3947 3.69372 12.4697 3.93747L13.2197 6.56247L12.4509 9.16872C12.3759 9.41247 12.4509 9.67497 12.6197 9.86247C12.8072 10.05 13.0697 10.1062 13.3134 10.0312L15.9384 9.28122L18.5447 10.05C18.6197 10.0687 18.6759 10.0875 18.7509 10.0875C18.9384 10.0875 19.1072 10.0125 19.2572 9.88122C19.4447 9.69372 19.5009 9.43122 19.4259 9.18747L18.6572 6.56247Z" fill="#EF3A4F"/>
<path d="M11.1572 17.8125L11.9259 15.2062C12.0009 14.9625 11.9259 14.7 11.7572 14.5125C11.5697 14.325 11.3072 14.2687 11.0634 14.3437L8.43845 15.0937L5.8322 14.325C5.58845 14.25 5.32595 14.325 5.13845 14.4937C4.95095 14.6812 4.8947 14.9437 4.9697 15.1875L5.7197 17.8125L4.95095 20.4187C4.87595 20.6625 4.95095 20.925 5.1197 21.1125C5.3072 21.3 5.5697 21.3562 5.81345 21.2812L8.4197 20.5125L11.0259 21.2812C11.0822 21.3 11.1572 21.3 11.2322 21.3C11.4197 21.3 11.5884 21.225 11.7384 21.0937C11.9259 20.9062 11.9822 20.6437 11.9072 20.4L11.1572 17.8125Z" fill="#EF3A4F"/>
<path d="M39.2829 27.1874L40.0517 24.5812C40.1267 24.3374 40.0517 24.0749 39.8829 23.8874C39.6954 23.6999 39.4329 23.6437 39.1892 23.7187L36.5829 24.4874L33.9767 23.7187C33.7329 23.6437 33.4704 23.7187 33.2829 23.8874C33.0954 24.0749 33.0392 24.3374 33.1142 24.5812L33.8829 27.1874L33.1142 29.7937C33.0392 30.0374 33.1142 30.2999 33.2829 30.4874C33.4704 30.6749 33.7329 30.7312 33.9767 30.6562L36.5829 29.8874L39.1892 30.6562C39.2454 30.6749 39.3204 30.6749 39.3954 30.6749C39.5829 30.6749 39.7517 30.5999 39.9017 30.4687C40.0892 30.2812 40.1454 30.0187 40.0704 29.7749L39.2829 27.1874Z" fill="#EF3A4F"/>
</svg>
