<svg width="45" height="45" viewBox="0 0 45 45" fill="none" xmlns="http://www.w3.org/2000/svg">
<path d="M26.1797 16.875C26.1797 14.2079 27.0429 12.7777 28.098 11.9759C29.2049 11.1347 30.7061 10.8438 32.2109 10.8438C33.7158 10.8438 35.217 11.1347 36.3239 11.9759C37.3789 12.7777 38.2422 14.2079 38.2422 16.875V28.125C38.2422 30.7921 37.3789 32.2223 36.3239 33.0241C35.217 33.8653 33.7158 34.1562 32.2109 34.1562C30.7061 34.1562 29.2049 33.8653 28.098 33.0241C27.0429 32.2223 26.1797 30.7921 26.1797 28.125V16.875Z" fill="white" stroke="black" stroke-width="2"/>
<path d="M6.75781 16.875C6.75781 14.2079 7.62107 12.7777 8.67614 11.9759C9.78305 11.1347 11.2842 10.8438 12.7891 10.8438C14.2939 10.8438 15.7951 11.1347 16.902 11.9759C17.9571 12.7777 18.8203 14.2079 18.8203 16.875V28.125C18.8203 30.7921 17.9571 32.2223 16.902 33.0241C15.7951 33.8653 14.2939 34.1562 12.7891 34.1562C11.2842 34.1562 9.78305 33.8653 8.67614 33.0241C7.62107 32.2223 6.75781 30.7921 6.75781 28.125V16.875Z" fill="white" stroke="black" stroke-width="2"/>
<path d="M25.1828 21.0938H19.8203V23.9062H25.1828V21.0938Z" fill="black"/>
<path d="M42.1875 28.5938C41.4188 28.5938 40.7812 27.9562 40.7812 27.1875V17.8125C40.7812 17.0438 41.4188 16.4062 42.1875 16.4062C42.9562 16.4062 43.5938 17.0438 43.5938 17.8125V27.1875C43.5938 27.9562 42.9562 28.5938 42.1875 28.5938Z" fill="#EF3A4F"/>
<path d="M2.8125 28.5938C2.04375 28.5938 1.40625 27.9562 1.40625 27.1875V17.8125C1.40625 17.0438 2.04375 16.4062 2.8125 16.4062C3.58125 16.4062 4.21875 17.0438 4.21875 17.8125V27.1875C4.21875 27.9562 3.58125 28.5938 2.8125 28.5938Z" fill="#EF3A4F"/>
</svg>
