<svg width="13" height="13" viewBox="0 0 13 13" fill="none" xmlns="http://www.w3.org/2000/svg">
<path d="M4.95755 11.2511V9.58995C4.95754 9.16743 5.302 8.82412 5.72878 8.82128H7.29207C7.72088 8.82128 8.0685 9.16543 8.0685 9.58995V9.58995V11.2563C8.0684 11.615 8.35762 11.9082 8.71987 11.9166H9.76207C10.801 11.9166 11.6432 11.0828 11.6432 10.0542V10.0542V5.32875C11.6377 4.92412 11.4458 4.54415 11.1221 4.29698L7.55783 1.45446C6.9334 0.959517 6.04576 0.959517 5.42133 1.45446L1.87266 4.30214C1.54779 4.54831 1.35556 4.9289 1.35156 5.3339V10.0542C1.35156 11.0828 2.19379 11.9166 3.23272 11.9166H4.27492C4.64617 11.9166 4.94713 11.6186 4.94713 11.2511V11.2511" stroke="#9D9D9D" stroke-linecap="round" stroke-linejoin="round"/>
</svg>
