<svg width="13" height="13" viewBox="0 0 13 13" fill="none" xmlns="http://www.w3.org/2000/svg">
<path fill-rule="evenodd" clip-rule="evenodd" d="M3.85156 9.5132C3.62731 9.5132 3.44531 9.3312 3.44531 9.10695V5.39111C3.44531 5.16686 3.62731 4.98486 3.85156 4.98486C4.07581 4.98486 4.25781 5.16686 4.25781 5.39111V9.10695C4.25781 9.3312 4.07581 9.5132 3.85156 9.5132" fill="#9D9D9D"/>
<path fill-rule="evenodd" clip-rule="evenodd" d="M6.38281 9.51268C6.15856 9.51268 5.97656 9.33068 5.97656 9.10643V3.6123C5.97656 3.38805 6.15856 3.20605 6.38281 3.20605C6.60706 3.20605 6.78906 3.38805 6.78906 3.6123V9.10643C6.78906 9.33068 6.60706 9.51268 6.38281 9.51268" fill="#9D9D9D"/>
<path fill-rule="evenodd" clip-rule="evenodd" d="M8.86719 9.51249C8.64294 9.51249 8.46094 9.33049 8.46094 9.10624V7.35449C8.46094 7.13024 8.64294 6.94824 8.86719 6.94824C9.09144 6.94824 9.27344 7.13024 9.27344 7.35449V9.10624C9.27344 9.33049 9.09144 9.51249 8.86719 9.51249" fill="#9D9D9D"/>
<path fill-rule="evenodd" clip-rule="evenodd" d="M3.82373 1.35425C2.32223 1.35425 1.35156 2.38179 1.35156 3.97321V8.75612C1.35156 10.3475 2.32223 11.3751 3.82373 11.3751H8.90023C10.4023 11.3751 11.3724 10.3475 11.3724 8.75612V3.97321C11.3724 2.38179 10.4023 1.35425 8.90023 1.35425H3.82373ZM8.90023 12.1876H3.82373C1.8591 12.1876 0.539062 10.8085 0.539062 8.75612V3.97321C0.539062 1.92083 1.8591 0.541748 3.82373 0.541748H8.90023C10.8649 0.541748 12.1849 1.92083 12.1849 3.97321V8.75612C12.1849 10.8085 10.8649 12.1876 8.90023 12.1876V12.1876Z" fill="#9D9D9D"/>
</svg>
