<svg width="13" height="13" viewBox="0 0 13 13" fill="none" xmlns="http://www.w3.org/2000/svg">
<path d="M1.48438 1.76025L2.61104 1.95525L3.13267 8.1698C3.17438 8.67734 3.5985 9.0668 4.10767 9.06517H10.0167C10.5026 9.06625 10.9148 8.70875 10.9836 8.22775L11.4976 4.6755C11.555 4.27846 11.2793 3.91013 10.8828 3.85271C10.8482 3.84784 2.79196 3.84513 2.79196 3.84513" stroke="#9D9D9D" stroke-width="0.8125" stroke-linecap="round" stroke-linejoin="round"/>
<path d="M7.64844 5.84701H9.15048" stroke="#9D9D9D" stroke-width="0.8125" stroke-linecap="round" stroke-linejoin="round"/>
<path fill-rule="evenodd" clip-rule="evenodd" d="M3.87279 10.9429C4.03583 10.9429 4.16746 11.075 4.16746 11.2375C4.16746 11.4006 4.03583 11.5327 3.87279 11.5327C3.70975 11.5327 3.57812 11.4006 3.57812 11.2375C3.57812 11.075 3.70975 10.9429 3.87279 10.9429Z" fill="#9D9D9D" stroke="#9D9D9D" stroke-width="0.8125" stroke-linecap="round" stroke-linejoin="round"/>
<path fill-rule="evenodd" clip-rule="evenodd" d="M9.98217 10.9429C10.1452 10.9429 10.2774 11.075 10.2774 11.2375C10.2774 11.4006 10.1452 11.5327 9.98217 11.5327C9.81913 11.5327 9.6875 11.4006 9.6875 11.2375C9.6875 11.075 9.81913 10.9429 9.98217 10.9429Z" fill="#9D9D9D" stroke="#9D9D9D" stroke-width="0.8125" stroke-linecap="round" stroke-linejoin="round"/>
</svg>
